<?xml version="1.0" standalone="no"?>
<!DOCTYPE svg PUBLIC "-//W3C//DTD SVG 20010904//EN"
 "http://www.w3.org/TR/2001/REC-SVG-20010904/DTD/svg10.dtd">
<svg version="1.0" xmlns="http://www.w3.org/2000/svg"
 width="500.000000pt" height="500.000000pt" viewBox="0 0 500.000000 500.000000"
 preserveAspectRatio="xMidYMid meet">

<g transform="translate(0.000000,500.000000) scale(0.100000,-0.100000)"
fill="#000000" stroke="none">
<path d="M2330 3653 c-14 -10 -86 -57 -160 -105 l-135 -87 -5 52 -5 52 -80 0
-80 0 -3 -111 -3 -110 -32 -19 c-80 -47 -217 -139 -217 -146 0 -24 36 -5 231
121 428 278 511 330 523 330 7 0 76 -42 154 -92 274 -179 545 -353 569 -366
22 -12 24 -12 21 4 -3 16 -113 91 -435 296 -62 39 -113 74 -113 77 1 3 27 22
59 42 l59 37 238 -157 c132 -86 288 -189 349 -228 69 -46 113 -69 119 -63 5 5
8 11 5 14 -10 10 -695 459 -706 463 -6 3 -39 -14 -72 -36 -33 -23 -67 -44 -75
-47 -7 -3 -48 18 -91 45 -43 28 -80 51 -84 51 -4 0 -18 -8 -31 -17z m-330
-163 c0 -47 -2 -50 -42 -78 -24 -16 -49 -32 -55 -36 -10 -5 -13 13 -13 78 l0
86 55 0 55 0 0 -50z"/>
<path d="M4292 2888 c-8 -10 0 -13 36 -12 62 1 72 3 72 12 0 13 -97 13 -108 0z"/>
<path d="M870 2819 c-74 -33 -108 -102 -88 -177 17 -64 67 -104 143 -115 33
-4 36 -4 15 5 -58 23 -76 35 -98 68 -20 30 -23 44 -20 98 3 54 8 67 34 93 54
53 147 48 179 -10 l14 -26 1 32 c0 26 -5 33 -31 42 -47 16 -98 13 -149 -10z"/>
<path d="M3610 2833 c46 -7 76 -24 93 -51 l16 -27 1 32 c0 26 -5 33 -31 42
-18 6 -48 10 -68 10 -26 -1 -29 -3 -11 -6z"/>
<path d="M4725 2831 c-13 -5 -4 -8 27 -8 85 0 132 -55 132 -154 -1 -68 -29
-114 -77 -128 -18 -5 -24 -10 -14 -10 49 -3 110 55 128 121 30 112 -89 221
-196 179z"/>
<path d="M73 2819 c15 -9 17 -26 17 -134 0 -117 -1 -125 -22 -139 -22 -15 -20
-16 27 -15 28 0 43 3 35 6 -26 10 -30 26 -29 138 l1 110 63 -130 62 -130 25
55 c13 30 37 87 54 125 l29 70 7 -55 c12 -109 9 -168 -9 -179 -14 -8 -5 -10
37 -10 30 1 48 3 38 6 -22 6 -27 30 -29 162 -1 86 2 116 12 123 10 6 5 8 -15
6 -28 -3 -33 -12 -82 -122 l-52 -120 -61 122 c-59 119 -62 122 -94 122 -26 -1
-29 -2 -14 -11z"/>
<path d="M568 2686 c3 -132 1 -145 -15 -149 -10 -3 9 -5 42 -5 45 -1 54 1 38
8 -22 9 -23 14 -23 144 0 98 3 136 13 139 6 3 -4 6 -23 6 l-35 1 3 -144z"/>
<path d="M1221 2715 c8 -151 32 -188 122 -188 87 0 117 46 117 181 0 69 4 94
16 106 14 15 12 16 -21 16 -33 0 -35 -1 -21 -16 12 -12 16 -36 16 -100 0 -125
-27 -174 -95 -174 -70 0 -95 48 -95 184 0 66 4 96 13 99 6 3 -4 6 -23 6 l-35
1 6 -115z"/>
<path d="M1628 2823 c9 -3 12 -42 12 -143 0 -136 0 -139 -22 -143 -13 -2 25
-5 84 -6 l106 -1 7 31 c9 39 2 46 -15 14 -15 -28 -42 -38 -86 -33 -28 3 -29 4
-32 71 l-3 67 39 0 c21 0 43 -5 50 -12 9 -9 12 -6 12 15 0 24 -2 26 -19 17
-11 -5 -33 -10 -50 -10 l-31 0 0 65 0 65 44 0 c35 0 48 -5 60 -22 l16 -22 0
27 0 27 -92 -1 c-51 0 -87 -3 -80 -6z"/>
<path d="M1968 2818 c13 -13 17 -245 4 -264 -4 -6 -14 -14 -22 -17 -8 -3 38
-6 103 -6 l117 -1 -1 38 c0 31 -2 34 -9 15 -13 -31 -44 -44 -98 -41 l-47 3 -3
129 c-2 86 1 133 9 142 9 12 5 14 -27 14 -30 0 -35 -3 -26 -12z"/>
<path d="M2488 2693 c3 -121 1 -139 -14 -150 -15 -11 -5 -13 65 -13 78 0 84 2
112 29 44 44 33 108 -21 131 l-28 11 24 24 c13 13 24 33 24 45 0 27 -34 60
-62 60 l-22 0 22 -16 c46 -32 17 -114 -40 -114 -15 0 -18 9 -18 59 0 38 4 61
13 64 6 3 -4 6 -23 6 l-35 1 3 -137z m127 -28 c52 -51 22 -130 -47 -123 l-33
3 -3 73 -3 72 31 0 c19 0 40 -9 55 -25z"/>
<path d="M2828 2823 c9 -3 12 -42 12 -143 0 -136 0 -139 -22 -143 -13 -2 4 -4
37 -4 33 -1 52 1 43 4 -15 4 -18 16 -18 74 0 67 1 69 25 69 17 0 29 -9 39 -27
8 -16 33 -49 56 -75 36 -41 47 -48 78 -48 l37 0 -32 16 c-27 13 -91 86 -117
131 -3 6 5 24 19 39 47 50 21 114 -45 114 l-25 0 25 -13 c20 -10 26 -21 28
-54 4 -49 -16 -73 -59 -73 l-29 0 0 64 c0 42 4 66 13 69 6 3 -8 5 -33 5 -25 0
-39 -2 -32 -5z"/>
<path d="M3228 2823 c9 -3 12 -42 12 -143 0 -124 -2 -139 -17 -143 -10 -3 9
-5 42 -4 33 0 50 2 38 4 -23 4 -23 7 -23 143 0 101 3 140 13 143 6 3 -8 5 -33
5 -25 0 -39 -2 -32 -5z"/>
<path d="M3523 2814 c-81 -40 -102 -164 -40 -233 24 -26 76 -51 104 -51 12 1
7 6 -12 14 -16 7 -41 26 -55 41 -22 23 -25 36 -25 100 0 64 3 77 25 100 14 15
34 31 45 35 13 6 15 9 5 9 -8 0 -29 -7 -47 -15z"/>
<path d="M3868 2823 c9 -3 12 -42 12 -143 0 -136 0 -139 -22 -143 -13 -2 25
-5 84 -6 l106 -1 7 31 c9 39 2 46 -15 14 -15 -28 -42 -38 -86 -33 -28 3 -29 4
-32 71 l-3 67 39 0 c21 0 43 -5 50 -12 9 -9 12 -6 12 15 0 24 -2 26 -19 17
-11 -5 -33 -10 -50 -10 l-31 0 0 65 0 65 44 0 c35 0 48 -5 60 -22 l16 -22 0
27 0 27 -92 -1 c-51 0 -87 -3 -80 -6z"/>
<path d="M4203 2819 c15 -9 17 -26 17 -132 0 -124 -3 -140 -30 -150 -8 -3 8
-5 35 -5 28 0 42 2 33 5 -25 6 -29 33 -26 151 l3 103 109 -131 c59 -72 110
-129 112 -128 2 2 5 66 6 141 2 109 6 140 18 147 11 7 6 10 -19 10 -27 0 -31
-2 -22 -14 8 -9 11 -50 9 -118 l-3 -105 -95 118 c-88 109 -97 118 -130 118
-28 0 -32 -2 -17 -10z"/>
<path d="M4646 2780 c-63 -70 -48 -186 31 -231 35 -20 93 -32 93 -19 0 6 -8
10 -19 10 -25 0 -68 35 -86 70 -8 16 -15 56 -15 89 0 49 4 65 26 90 38 46 12
38 -30 -9z"/>
<path d="M990 2641 c20 -5 26 -14 28 -43 2 -23 -3 -41 -13 -52 -15 -15 -15
-16 7 -16 37 0 46 12 46 59 1 25 6 48 14 52 8 5 -12 8 -47 8 -41 -1 -52 -3
-35 -8z"/>
<path d="M3708 2585 c-7 -15 -26 -34 -43 -41 -22 -10 -25 -13 -10 -13 43 -1
63 11 69 41 8 41 0 47 -16 13z"/>
<path d="M1675 2209 c-20 -18 -50 -63 -71 -107 -20 -43 -41 -88 -48 -102 -16
-34 -94 -92 -120 -88 -23 3 -25 19 -12 77 6 25 5 32 -5 29 -7 -2 -15 -10 -17
-18 -3 -7 0 -10 6 -6 7 4 6 -8 -3 -33 -28 -80 28 -94 104 -26 43 39 55 43 46
16 -9 -29 26 -65 54 -56 28 8 98 70 113 99 6 11 -12 -3 -40 -32 -58 -59 -97
-70 -108 -28 -9 37 4 67 47 109 56 54 109 137 109 169 0 36 -11 35 -55 -3z
m45 1 c0 -32 -114 -190 -127 -176 -7 7 32 91 67 141 28 41 60 60 60 35z"/>
<path d="M2276 2190 c-26 -39 -28 -40 -89 -42 l-62 -2 59 -3 c65 -5 63 5 23
-103 -19 -50 -34 -72 -66 -97 -24 -18 -49 -33 -57 -33 -19 0 -18 56 0 93 8 15
12 27 8 27 -4 0 -36 -25 -72 -56 -65 -55 -93 -69 -127 -62 -12 2 -18 12 -18
33 0 24 5 30 31 37 39 10 72 44 57 59 -36 36 -109 -51 -104 -123 2 -28 46 -33
91 -9 39 20 40 20 40 2 0 -49 33 -68 60 -35 8 8 29 22 49 30 20 8 46 25 58 36
l23 21 0 -20 c0 -58 30 -69 78 -28 26 22 30 23 25 6 -6 -24 11 -35 36 -22 19
11 65 80 58 87 -2 3 -16 -14 -31 -36 -31 -47 -51 -53 -41 -12 10 42 33 71 55
69 11 -1 20 -5 20 -10 0 -4 4 -6 9 -3 5 3 3 -11 -4 -32 -9 -24 -10 -43 -4 -54
18 -34 58 -19 130 49 36 34 36 34 32 9 -8 -40 5 -76 26 -76 11 0 34 12 51 26
31 27 31 27 37 5 13 -50 83 -33 163 41 47 42 33 35 -40 -19 -43 -33 -93 -43
-105 -22 -12 19 4 59 25 59 10 0 32 11 47 24 21 19 25 27 17 36 -20 20 -53 1
-94 -56 -39 -51 -90 -90 -104 -77 -18 18 4 118 44 206 l13 27 121 2 121 2
-118 6 -119 5 26 38 c14 20 21 37 16 37 -5 0 -21 -18 -35 -40 l-25 -40 -170 0
-171 0 12 23 c6 12 18 30 27 40 8 9 11 17 5 17 -6 0 -22 -18 -37 -40z m324
-57 c0 -26 -53 -130 -80 -158 -41 -42 -93 -70 -115 -61 -18 6 -17 19 1 85 6
19 4 23 -8 18 -9 -3 -20 -1 -25 4 -16 16 -38 1 -72 -47 -32 -43 -82 -79 -95
-67 -18 19 14 155 49 210 15 22 19 23 180 23 91 0 165 -3 165 -7z m-661 -124
c-8 -5 -21 -9 -29 -9 -10 1 -7 7 10 21 17 14 26 17 28 9 3 -7 -2 -16 -9 -21z
m800 0 c-8 -5 -21 -9 -29 -9 -10 1 -7 7 10 21 17 14 26 17 28 9 3 -7 -2 -16
-9 -21z m-686 -68 c-8 -30 -10 -31 -28 -17 -20 14 -20 15 5 41 28 29 35 22 23
-24z m-6 -56 c-7 -20 -42 -10 -45 12 -3 20 -1 21 22 10 14 -7 24 -16 23 -22z"/>
<path d="M3956 2190 c-26 -39 -28 -40 -89 -42 l-62 -2 58 -3 c31 -2 57 -7 57
-11 0 -4 -11 -33 -24 -65 -27 -66 -52 -96 -102 -123 -35 -19 -36 -19 -50 0 -8
11 -14 33 -14 48 0 62 -48 42 -102 -41 -31 -49 -37 -41 -13 16 24 56 18 60
-27 17 -24 -23 -54 -48 -68 -58 -28 -18 -75 -21 -85 -5 -12 19 4 59 24 59 21
0 71 36 71 51 0 27 -37 16 -115 -35 -47 -31 -87 -56 -89 -56 -2 0 -2 18 1 40
3 22 3 40 0 40 -4 0 -26 -26 -49 -57 -36 -49 -43 -55 -46 -36 -5 35 35 103 60
103 17 0 19 3 10 12 -9 9 -26 -4 -75 -55 -92 -96 -154 -104 -128 -16 7 22 10
43 7 46 -7 7 -26 -6 -26 -18 0 -6 4 -7 10 -4 5 3 3 -12 -5 -34 -26 -74 25 -94
93 -36 37 31 40 31 35 1 -12 -59 43 -33 79 37 23 46 34 43 20 -5 -6 -20 -40
-63 -86 -110 -77 -78 -115 -140 -116 -190 0 -59 49 -43 97 30 16 26 47 89 69
140 36 85 43 95 92 128 30 19 56 34 58 31 3 -2 1 -15 -4 -28 -11 -33 -5 -57
19 -64 27 -9 57 2 110 41 l47 34 -8 -35 c-4 -19 -4 -37 0 -40 8 -5 50 41 50
54 0 10 50 61 60 61 4 0 11 -18 15 -41 4 -22 13 -43 21 -46 23 -9 62 6 97 37
l34 30 -5 -25 c-7 -39 6 -75 28 -75 23 0 82 49 111 94 14 21 7 16 -22 -16 -45
-48 -82 -72 -93 -61 -19 19 12 154 49 210 15 22 22 23 133 25 l117 2 -118 6
-119 5 26 38 c14 20 22 37 17 37 -5 0 -20 -18 -35 -40z m-446 -164 c0 -8 -15
-19 -32 -25 l-33 -11 28 25 c32 29 37 30 37 11z m-237 -173 c-48 -117 -108
-213 -133 -213 -49 0 23 142 113 223 17 15 32 27 34 27 1 0 -5 -17 -14 -37z"/>
<path d="M1167 2002 c-69 -64 -110 -92 -136 -92 -30 0 -35 21 -17 65 20 47 20
45 -5 45 -11 0 -17 5 -14 10 3 6 1 10 -4 10 -6 0 -11 -9 -11 -20 0 -11 7 -20
15 -20 12 0 13 -4 5 -19 -15 -29 -12 -81 5 -87 21 -9 72 14 113 50 29 26 34
27 32 10 -9 -76 37 -83 133 -19 l28 18 -6 -25 c-7 -28 5 -41 28 -32 17 6 71
83 64 90 -2 2 -16 -14 -31 -36 -31 -47 -51 -53 -41 -12 10 41 35 74 51 68 16
-6 19 9 4 19 -5 3 -31 -14 -57 -38 -66 -60 -93 -77 -125 -77 -32 0 -42 13 -34
46 4 15 14 24 26 24 26 0 75 44 66 58 -13 22 -37 12 -89 -36z m62 7 c-8 -5
-21 -9 -29 -9 -10 1 -7 7 10 21 17 14 26 17 28 9 3 -7 -2 -16 -9 -21z"/>
<path d="M3026 2005 c-48 -52 -57 -126 -14 -110 17 7 72 84 65 91 -2 2 -16
-14 -31 -36 -31 -47 -51 -53 -41 -12 10 41 35 74 51 68 16 -6 19 9 4 19 -5 3
-21 -6 -34 -20z"/>
</g>
</svg>
